<svg aria-hidden="true" style="position:absolute;width:0;height:0;overflow:hidden" xmlns="http://www.w3.org/2000/svg">
  <defs>
    
    <symbol id="icon-facebook" viewBox="0 0 31 32">
      <path d="M30.968 16.211c0-8.606-6.93-15.578-15.484-15.578S0 7.605 0 16.211C0 24 5.619 30.47 13.049 31.601V20.734H9.116v-4.523h3.933v-3.392c0-3.895 2.31-6.093 5.806-6.093 1.748 0 3.496.314 3.496.314v3.832h-1.935c-1.935 0-2.56 1.194-2.56 2.45v2.89h4.308l-.687 4.523h-3.621v10.867c7.43-1.131 13.111-7.601 13.111-15.39z"/>
    </symbol>
    
    <symbol id="icon-twitter" viewBox="0 0 38 32">
      <path d="M34.125 8.757c1.471-1.103 2.794-2.426 3.824-3.971a14.482 14.482 0 0 1-4.412 1.176c1.617-.956 2.794-2.426 3.382-4.265a16.332 16.332 0 0 1-4.853 1.912 7.722 7.722 0 0 0-5.662-2.426 7.72 7.72 0 0 0-7.721 7.721c0 .588.074 1.176.221 1.765A22.404 22.404 0 0 1 2.948 2.581c-.662 1.103-1.029 2.426-1.029 3.897 0 2.647 1.324 5 3.456 6.397-1.25-.074-2.5-.368-3.529-.956v.073c0 3.75 2.647 6.838 6.176 7.574-.588.147-1.324.294-1.985.294-.515 0-.956-.073-1.471-.147.956 3.088 3.824 5.294 7.206 5.368-2.647 2.059-5.956 3.309-9.559 3.309-.662 0-1.25-.073-1.838-.147 3.382 2.206 7.426 3.456 11.838 3.456 14.191 0 21.912-11.691 21.912-21.912V8.758z"/>
    </symbol>
    
    <symbol id="icon-slider" viewBox="0 0 32 32">
      <path d="M16.023 4.707 32 0l-4.662 16.023L32 32l-15.977-4.662L0 32l4.707-15.977L0 0l16.023 4.707z"/>
    </symbol>
    
    <symbol id="icon-linkedin" viewBox="0 0 32 32">
      <path d="M.598 32h6.579V10.7H.598V32zM0 3.9C0 6 1.695 7.7 3.888 7.7c2.093 0 3.788-1.7 3.788-3.8S5.981 0 3.888 0C1.695 0 0 1.8 0 3.9zM25.321 32H32V20.3c0-5.7-1.296-10.2-7.975-10.2-3.19 0-5.383 1.8-6.28 3.5h-.1v-2.9h-6.28V32h6.579V21.5c0-2.8.498-5.5 3.988-5.5 3.389 0 3.389 3.2 3.389 5.6V32z"/>
    </symbol>
    
    <symbol id="icon-minus" viewBox="0 0 82 32">
      <path d="M0 28.069V2.286h81.189v25.783H0z"/>
    </symbol>
    
    <symbol id="icon-plus" viewBox="0 0 32 32">
      <path d="M11.984 30.281V18.789H.634v-6.668h11.35V.629h6.952v11.492h11.35v6.668h-11.35v11.492h-6.952z"/>
    </symbol>
    
    <symbol id="icon-arrow" viewBox="0 0 34 32">
      <path d="M2 21.922a2.4 2.4 0 1 0 2.4 4.156L2 21.921zM33.231 8.621a2.4 2.4 0 0 0-1.697-2.939L10.67.092a2.4 2.4 0 0 0-1.242 4.636l18.546 4.969-4.969 18.546a2.4 2.4 0 0 0 4.636 1.242l5.591-20.864zM4.4 26.078l27.713-16-2.4-4.157L2 21.921l2.4 4.157z"/>
    </symbol>
    
    <symbol id="icon-burger" viewBox="0 0 44 32">
      <path stroke-linecap="round" stroke-width="3.368" d="M1.684 3.043h40.421M1.684 16.516h40.421M1.684 29.99h40.421"/>
    </symbol>
    
    <symbol id="icon-radio" viewBox="0 0 32 32">
      <path d="M32 16c0 8.837-7.163 16-16 16s-16-7.163-16-16c0-8.837 7.163-16 16-16s16 7.163 16 16z"></path>
    </symbol>

    <symbol id="icon-close" viewBox="0 0 20 20">
      <path d="M10 8.586l-7.071-7.071-1.414 1.414 7.071 7.071-7.071 7.071 1.414 1.414 7.071-7.071 7.071 7.071 1.414-1.414-7.071-7.071 7.071-7.071-1.414-1.414-7.071 7.071z"></path>
    </symbol>
  </defs>
</svg>
